<svg width="1128" height="191" viewBox="0 0 1128 191" xmlns="http://www.w3.org/2000/svg">
  <defs>
    <linearGradient id="bg" x1="0%" y1="0%" x2="100%" y2="100%">
      <stop offset="0%" stop-color="#0a2e18"/>
      <stop offset="50%" stop-color="#145f34"/>
      <stop offset="100%" stop-color="#1d9e52"/>
    </linearGradient>
    <radialGradient id="glow" cx="82%" cy="20%" r="65%">
      <stop offset="0%" stop-color="#3be07a" stop-opacity="0.30"/>
      <stop offset="100%" stop-color="#3be07a" stop-opacity="0"/>
    </radialGradient>
    <linearGradient id="fade" x1="0%" y1="0%" x2="100%" y2="0%">
      <stop offset="0%" stop-color="#0a2e18" stop-opacity="1"/>
      <stop offset="38%" stop-color="#0a2e18" stop-opacity="0"/>
    </linearGradient>
  </defs>

  <rect width="1128" height="191" fill="url(#bg)"/>
  <rect width="1128" height="191" fill="url(#glow)"/>

  <!-- terrain contour lines -->
  <g stroke="#ffffff" stroke-opacity="0.07" fill="none" stroke-width="1.4">
    <path d="M0,150 Q150,122 300,150 T600,150 T900,150 T1128,150"/>
    <path d="M0,166 Q150,142 300,166 T600,166 T900,166 T1128,166"/>
    <path d="M0,181 Q150,162 300,181 T600,181 T900,181 T1128,181"/>
  </g>

  <!-- solar field -->
  <g>
    <polygon points="600.0,48.0 610.0,38.0 640.0,38.0 630.0,48.0" fill="#06190f" fill-opacity="0.55" stroke="#3be07a" stroke-opacity="0.35" stroke-width="0.6"/>
    <polygon points="646.0,48.0 656.0,38.0 686.0,38.0 676.0,48.0" fill="#06190f" fill-opacity="0.55" stroke="#3be07a" stroke-opacity="0.35" stroke-width="0.6"/>
    <polygon points="692.0,48.0 702.0,38.0 732.0,38.0 722.0,48.0" fill="#06190f" fill-opacity="0.55" stroke="#3be07a" stroke-opacity="0.35" stroke-width="0.6"/>
    <polygon points="738.0,48.0 748.0,38.0 778.0,38.0 768.0,48.0" fill="#06190f" fill-opacity="0.55" stroke="#3be07a" stroke-opacity="0.35" stroke-width="0.6"/>
    <polygon points="784.0,48.0 794.0,38.0 824.0,38.0 814.0,48.0" fill="#06190f" fill-opacity="0.55" stroke="#3be07a" stroke-opacity="0.35" stroke-width="0.6"/>
    <polygon points="830.0,48.0 840.0,38.0 870.0,38.0 860.0,48.0" fill="#06190f" fill-opacity="0.55" stroke="#3be07a" stroke-opacity="0.35" stroke-width="0.6"/>
    <polygon points="876.0,48.0 886.0,38.0 916.0,38.0 906.0,48.0" fill="#06190f" fill-opacity="0.55" stroke="#3be07a" stroke-opacity="0.35" stroke-width="0.6"/>
    <polygon points="922.0,48.0 932.0,38.0 962.0,38.0 952.0,48.0" fill="#06190f" fill-opacity="0.55" stroke="#3be07a" stroke-opacity="0.35" stroke-width="0.6"/>
    <polygon points="968.0,48.0 978.0,38.0 1008.0,38.0 998.0,48.0" fill="#06190f" fill-opacity="0.55" stroke="#3be07a" stroke-opacity="0.35" stroke-width="0.6"/>
    <polygon points="576.0,74.2 585.0,62.0 618.5,62.0 609.5,74.2" fill="#06190f" fill-opacity="0.61" stroke="#3be07a" stroke-opacity="0.35" stroke-width="0.6"/>
    <polygon points="624.5,74.2 633.5,62.0 667.0,62.0 658.0,74.2" fill="#06190f" fill-opacity="0.61" stroke="#3be07a" stroke-opacity="0.35" stroke-width="0.6"/>
    <polygon points="673.0,74.2 682.0,62.0 715.5,62.0 706.5,74.2" fill="#06190f" fill-opacity="0.61" stroke="#3be07a" stroke-opacity="0.35" stroke-width="0.6"/>
    <polygon points="721.5,74.2 730.5,62.0 764.0,62.0 755.0,74.2" fill="#06190f" fill-opacity="0.61" stroke="#3be07a" stroke-opacity="0.35" stroke-width="0.6"/>
    <polygon points="770.0,74.2 779.0,62.0 812.5,62.0 803.5,74.2" fill="#06190f" fill-opacity="0.61" stroke="#3be07a" stroke-opacity="0.35" stroke-width="0.6"/>
    <polygon points="818.5,74.2 827.5,62.0 861.0,62.0 852.0,74.2" fill="#06190f" fill-opacity="0.61" stroke="#3be07a" stroke-opacity="0.35" stroke-width="0.6"/>
    <polygon points="867.0,74.2 876.0,62.0 909.5,62.0 900.5,74.2" fill="#06190f" fill-opacity="0.61" stroke="#3be07a" stroke-opacity="0.35" stroke-width="0.6"/>
    <polygon points="915.5,74.2 924.5,62.0 958.0,62.0 949.0,74.2" fill="#06190f" fill-opacity="0.61" stroke="#3be07a" stroke-opacity="0.35" stroke-width="0.6"/>
    <polygon points="964.0,74.2 973.0,62.0 1006.5,62.0 997.5,74.2" fill="#06190f" fill-opacity="0.61" stroke="#3be07a" stroke-opacity="0.35" stroke-width="0.6"/>
    <polygon points="552.0,100.5 560.0,86.0 597.0,86.0 589.0,100.5" fill="#06190f" fill-opacity="0.68" stroke="#3be07a" stroke-opacity="0.35" stroke-width="0.6"/>
    <polygon points="603.0,100.5 611.0,86.0 648.0,86.0 640.0,100.5" fill="#06190f" fill-opacity="0.68" stroke="#3be07a" stroke-opacity="0.35" stroke-width="0.6"/>
    <polygon points="654.0,100.5 662.0,86.0 699.0,86.0 691.0,100.5" fill="#06190f" fill-opacity="0.68" stroke="#3be07a" stroke-opacity="0.35" stroke-width="0.6"/>
    <polygon points="705.0,100.5 713.0,86.0 750.0,86.0 742.0,100.5" fill="#06190f" fill-opacity="0.68" stroke="#3be07a" stroke-opacity="0.35" stroke-width="0.6"/>
    <polygon points="756.0,100.5 764.0,86.0 801.0,86.0 793.0,100.5" fill="#06190f" fill-opacity="0.68" stroke="#3be07a" stroke-opacity="0.35" stroke-width="0.6"/>
    <polygon points="807.0,100.5 815.0,86.0 852.0,86.0 844.0,100.5" fill="#06190f" fill-opacity="0.68" stroke="#3be07a" stroke-opacity="0.35" stroke-width="0.6"/>
    <polygon points="858.0,100.5 866.0,86.0 903.0,86.0 895.0,100.5" fill="#06190f" fill-opacity="0.68" stroke="#3be07a" stroke-opacity="0.35" stroke-width="0.6"/>
    <polygon points="909.0,100.5 917.0,86.0 954.0,86.0 946.0,100.5" fill="#06190f" fill-opacity="0.68" stroke="#3be07a" stroke-opacity="0.35" stroke-width="0.6"/>
    <polygon points="960.0,100.5 968.0,86.0 1005.0,86.0 997.0,100.5" fill="#06190f" fill-opacity="0.68" stroke="#3be07a" stroke-opacity="0.35" stroke-width="0.6"/>
    <polygon points="528.0,126.8 535.0,110.0 575.5,110.0 568.5,126.8" fill="#06190f" fill-opacity="0.74" stroke="#3be07a" stroke-opacity="0.35" stroke-width="0.6"/>
    <polygon points="581.5,126.8 588.5,110.0 629.0,110.0 622.0,126.8" fill="#06190f" fill-opacity="0.74" stroke="#3be07a" stroke-opacity="0.35" stroke-width="0.6"/>
    <polygon points="635.0,126.8 642.0,110.0 682.5,110.0 675.5,126.8" fill="#06190f" fill-opacity="0.74" stroke="#3be07a" stroke-opacity="0.35" stroke-width="0.6"/>
    <polygon points="688.5,126.8 695.5,110.0 736.0,110.0 729.0,126.8" fill="#06190f" fill-opacity="0.74" stroke="#3be07a" stroke-opacity="0.35" stroke-width="0.6"/>
    <polygon points="742.0,126.8 749.0,110.0 789.5,110.0 782.5,126.8" fill="#06190f" fill-opacity="0.74" stroke="#3be07a" stroke-opacity="0.35" stroke-width="0.6"/>
    <polygon points="795.5,126.8 802.5,110.0 843.0,110.0 836.0,126.8" fill="#06190f" fill-opacity="0.74" stroke="#3be07a" stroke-opacity="0.35" stroke-width="0.6"/>
    <polygon points="849.0,126.8 856.0,110.0 896.5,110.0 889.5,126.8" fill="#06190f" fill-opacity="0.74" stroke="#3be07a" stroke-opacity="0.35" stroke-width="0.6"/>
    <polygon points="902.5,126.8 909.5,110.0 950.0,110.0 943.0,126.8" fill="#06190f" fill-opacity="0.74" stroke="#3be07a" stroke-opacity="0.35" stroke-width="0.6"/>
    <polygon points="956.0,126.8 963.0,110.0 1003.5,110.0 996.5,126.8" fill="#06190f" fill-opacity="0.74" stroke="#3be07a" stroke-opacity="0.35" stroke-width="0.6"/>
    <polygon points="504.0,153.0 510.0,134.0 554.0,134.0 548.0,153.0" fill="#06190f" fill-opacity="0.80" stroke="#3be07a" stroke-opacity="0.35" stroke-width="0.6"/>
    <polygon points="560.0,153.0 566.0,134.0 610.0,134.0 604.0,153.0" fill="#06190f" fill-opacity="0.80" stroke="#3be07a" stroke-opacity="0.35" stroke-width="0.6"/>
    <polygon points="616.0,153.0 622.0,134.0 666.0,134.0 660.0,153.0" fill="#06190f" fill-opacity="0.80" stroke="#3be07a" stroke-opacity="0.35" stroke-width="0.6"/>
    <polygon points="672.0,153.0 678.0,134.0 722.0,134.0 716.0,153.0" fill="#06190f" fill-opacity="0.80" stroke="#3be07a" stroke-opacity="0.35" stroke-width="0.6"/>
    <polygon points="728.0,153.0 734.0,134.0 778.0,134.0 772.0,153.0" fill="#06190f" fill-opacity="0.80" stroke="#3be07a" stroke-opacity="0.35" stroke-width="0.6"/>
    <polygon points="784.0,153.0 790.0,134.0 834.0,134.0 828.0,153.0" fill="#06190f" fill-opacity="0.80" stroke="#3be07a" stroke-opacity="0.35" stroke-width="0.6"/>
    <polygon points="840.0,153.0 846.0,134.0 890.0,134.0 884.0,153.0" fill="#06190f" fill-opacity="0.80" stroke="#3be07a" stroke-opacity="0.35" stroke-width="0.6"/>
    <polygon points="896.0,153.0 902.0,134.0 946.0,134.0 940.0,153.0" fill="#06190f" fill-opacity="0.80" stroke="#3be07a" stroke-opacity="0.35" stroke-width="0.6"/>
    <polygon points="952.0,153.0 958.0,134.0 1002.0,134.0 996.0,153.0" fill="#06190f" fill-opacity="0.80" stroke="#3be07a" stroke-opacity="0.35" stroke-width="0.6"/>
  </g>

  <!-- left fade so panels don't fight the text -->
  <rect width="1128" height="191" fill="url(#fade)"/>

  <!-- yield/data line accent -->
  <g stroke="#7CFFB2" stroke-width="2.2" fill="none" opacity="0.95" stroke-linecap="round" stroke-linejoin="round">
    <polyline points="772,138 812,118 852,126 892,92 932,102 972,66 1012,78 1052,46"/>
  </g>
  <g fill="#7CFFB2">
    <circle cx="772" cy="138" r="3.6"/>
    <circle cx="812" cy="118" r="3.6"/>
    <circle cx="852" cy="126" r="3.6"/>
    <circle cx="892" cy="92" r="3.6"/>
    <circle cx="932" cy="102" r="3.6"/>
    <circle cx="972" cy="66" r="3.6"/>
    <circle cx="1012" cy="78" r="3.6"/>
    <circle cx="1052" cy="46" r="3.6"/>
  </g>

  <!-- logo badge -->
  <g transform="translate(46,52)">
    <rect width="64" height="64" rx="15" fill="#0d3a20" stroke="#3be07a" stroke-opacity="0.45" stroke-width="1.5"/>
    <path d="M4 17 Q4 4 17 4 H47 Q60 4 60 17 V23 H4 Z" fill="#3be07a"/>
    <text x="32" y="44" text-anchor="middle" font-family="Arial Black, Arial, sans-serif" font-size="23" font-weight="900" fill="#ffffff">PV</text>
  </g>

  <!-- wordmark + tagline -->
  <text x="130" y="92" font-family="Arial, sans-serif" font-size="44" font-weight="800" fill="#ffffff">PVMath</text>
  <text x="132" y="118" font-family="Arial, sans-serif" font-size="16.5" font-weight="600" fill="#e3f9ec" letter-spacing="0.6">Solar Site Intelligence Platform</text>
  <text x="132" y="140" font-family="Arial, sans-serif" font-size="13.5" font-weight="400" fill="#a4ecc1" font-style="italic">From site to system.</text>
</svg>
